<?xml version="1.0" encoding="utf-8" standalone="no"?>
<!DOCTYPE svg PUBLIC "-//W3C//DTD SVG 1.1//EN"
  "http://www.w3.org/Graphics/SVG/1.1/DTD/svg11.dtd">
<!-- Created with matplotlib (https://matplotlib.org/) -->
<svg height="277.314375pt" version="1.1" viewBox="0 0 384.620312 277.314375" width="384.620312pt" xmlns="http://www.w3.org/2000/svg" xmlns:xlink="http://www.w3.org/1999/xlink">
 <metadata>
  <rdf:RDF xmlns:cc="http://creativecommons.org/ns#" xmlns:dc="http://purl.org/dc/elements/1.1/" xmlns:rdf="http://www.w3.org/1999/02/22-rdf-syntax-ns#">
   <cc:Work>
    <dc:type rdf:resource="http://purl.org/dc/dcmitype/StillImage"/>
    <dc:date>2021-08-28T15:39:18.789342</dc:date>
    <dc:format>image/svg+xml</dc:format>
    <dc:creator>
     <cc:Agent>
      <dc:title>Matplotlib v3.3.2, https://matplotlib.org/</dc:title>
     </cc:Agent>
    </dc:creator>
   </cc:Work>
  </rdf:RDF>
 </metadata>
 <defs>
  <style type="text/css">*{stroke-linecap:butt;stroke-linejoin:round;}</style>
 </defs>
 <g id="figure_1">
  <g id="patch_1">
   <path d="M 0 277.314375 
L 384.620312 277.314375 
L 384.620312 0 
L 0 0 
z
" style="fill:none;"/>
  </g>
  <g id="axes_1">
   <g id="patch_2">
    <path d="M 42.620313 239.758125 
L 377.420313 239.758125 
L 377.420313 22.318125 
L 42.620313 22.318125 
z
" style="fill:#ffffff;"/>
   </g>
   <g id="matplotlib.axis_1">
    <g id="xtick_1">
     <g id="line2d_1">
      <defs>
       <path d="M 0 0 
L 0 3.5 
" id="mc98f9d8691" style="stroke:#000000;stroke-width:0.8;"/>
      </defs>
      <g>
       <use style="stroke:#000000;stroke-width:0.8;" x="60.822452" xlink:href="#mc98f9d8691" y="239.758125"/>
      </g>
     </g>
     <g id="text_1">
      <!-- 0 -->
      <g transform="translate(57.641202 254.356562)scale(0.1 -0.1)">
       <defs>
        <path d="M 31.78125 66.40625 
Q 24.171875 66.40625 20.328125 58.90625 
Q 16.5 51.421875 16.5 36.375 
Q 16.5 21.390625 20.328125 13.890625 
Q 24.171875 6.390625 31.78125 6.390625 
Q 39.453125 6.390625 43.28125 13.890625 
Q 47.125 21.390625 47.125 36.375 
Q 47.125 51.421875 43.28125 58.90625 
Q 39.453125 66.40625 31.78125 66.40625 
z
M 31.78125 74.21875 
Q 44.046875 74.21875 50.515625 64.515625 
Q 56.984375 54.828125 56.984375 36.375 
Q 56.984375 17.96875 50.515625 8.265625 
Q 44.046875 -1.421875 31.78125 -1.421875 
Q 19.53125 -1.421875 13.0625 8.265625 
Q 6.59375 17.96875 6.59375 36.375 
Q 6.59375 54.828125 13.0625 64.515625 
Q 19.53125 74.21875 31.78125 74.21875 
z
" id="DejaVuSans-48"/>
       </defs>
       <use xlink:href="#DejaVuSans-48"/>
      </g>
     </g>
    </g>
    <g id="xtick_2">
     <g id="line2d_2">
      <g>
       <use style="stroke:#000000;stroke-width:0.8;" x="120.501596" xlink:href="#mc98f9d8691" y="239.758125"/>
      </g>
     </g>
     <g id="text_2">
      <!-- 20 -->
      <g transform="translate(114.139096 254.356562)scale(0.1 -0.1)">
       <defs>
        <path d="M 19.1875 8.296875 
L 53.609375 8.296875 
L 53.609375 0 
L 7.328125 0 
L 7.328125 8.296875 
Q 12.9375 14.109375 22.625 23.890625 
Q 32.328125 33.6875 34.8125 36.53125 
Q 39.546875 41.84375 41.421875 45.53125 
Q 43.3125 49.21875 43.3125 52.78125 
Q 43.3125 58.59375 39.234375 62.25 
Q 35.15625 65.921875 28.609375 65.921875 
Q 23.96875 65.921875 18.8125 64.3125 
Q 13.671875 62.703125 7.8125 59.421875 
L 7.8125 69.390625 
Q 13.765625 71.78125 18.9375 73 
Q 24.125 74.21875 28.421875 74.21875 
Q 39.75 74.21875 46.484375 68.546875 
Q 53.21875 62.890625 53.21875 53.421875 
Q 53.21875 48.921875 51.53125 44.890625 
Q 49.859375 40.875 45.40625 35.40625 
Q 44.1875 33.984375 37.640625 27.21875 
Q 31.109375 20.453125 19.1875 8.296875 
z
" id="DejaVuSans-50"/>
       </defs>
       <use xlink:href="#DejaVuSans-50"/>
       <use x="63.623047" xlink:href="#DejaVuSans-48"/>
      </g>
     </g>
    </g>
    <g id="xtick_3">
     <g id="line2d_3">
      <g>
       <use style="stroke:#000000;stroke-width:0.8;" x="180.18074" xlink:href="#mc98f9d8691" y="239.758125"/>
      </g>
     </g>
     <g id="text_3">
      <!-- 40 -->
      <g transform="translate(173.81824 254.356562)scale(0.1 -0.1)">
       <defs>
        <path d="M 37.796875 64.3125 
L 12.890625 25.390625 
L 37.796875 25.390625 
z
M 35.203125 72.90625 
L 47.609375 72.90625 
L 47.609375 25.390625 
L 58.015625 25.390625 
L 58.015625 17.1875 
L 47.609375 17.1875 
L 47.609375 0 
L 37.796875 0 
L 37.796875 17.1875 
L 4.890625 17.1875 
L 4.890625 26.703125 
z
" id="DejaVuSans-52"/>
       </defs>
       <use xlink:href="#DejaVuSans-52"/>
       <use x="63.623047" xlink:href="#DejaVuSans-48"/>
      </g>
     </g>
    </g>
    <g id="xtick_4">
     <g id="line2d_4">
      <g>
       <use style="stroke:#000000;stroke-width:0.8;" x="239.859885" xlink:href="#mc98f9d8691" y="239.758125"/>
      </g>
     </g>
     <g id="text_4">
      <!-- 60 -->
      <g transform="translate(233.497385 254.356562)scale(0.1 -0.1)">
       <defs>
        <path d="M 33.015625 40.375 
Q 26.375 40.375 22.484375 35.828125 
Q 18.609375 31.296875 18.609375 23.390625 
Q 18.609375 15.53125 22.484375 10.953125 
Q 26.375 6.390625 33.015625 6.390625 
Q 39.65625 6.390625 43.53125 10.953125 
Q 47.40625 15.53125 47.40625 23.390625 
Q 47.40625 31.296875 43.53125 35.828125 
Q 39.65625 40.375 33.015625 40.375 
z
M 52.59375 71.296875 
L 52.59375 62.3125 
Q 48.875 64.0625 45.09375 64.984375 
Q 41.3125 65.921875 37.59375 65.921875 
Q 27.828125 65.921875 22.671875 59.328125 
Q 17.53125 52.734375 16.796875 39.40625 
Q 19.671875 43.65625 24.015625 45.921875 
Q 28.375 48.1875 33.59375 48.1875 
Q 44.578125 48.1875 50.953125 41.515625 
Q 57.328125 34.859375 57.328125 23.390625 
Q 57.328125 12.15625 50.6875 5.359375 
Q 44.046875 -1.421875 33.015625 -1.421875 
Q 20.359375 -1.421875 13.671875 8.265625 
Q 6.984375 17.96875 6.984375 36.375 
Q 6.984375 53.65625 15.1875 63.9375 
Q 23.390625 74.21875 37.203125 74.21875 
Q 40.921875 74.21875 44.703125 73.484375 
Q 48.484375 72.75 52.59375 71.296875 
z
" id="DejaVuSans-54"/>
       </defs>
       <use xlink:href="#DejaVuSans-54"/>
       <use x="63.623047" xlink:href="#DejaVuSans-48"/>
      </g>
     </g>
    </g>
    <g id="xtick_5">
     <g id="line2d_5">
      <g>
       <use style="stroke:#000000;stroke-width:0.8;" x="299.539029" xlink:href="#mc98f9d8691" y="239.758125"/>
      </g>
     </g>
     <g id="text_5">
      <!-- 80 -->
      <g transform="translate(293.176529 254.356562)scale(0.1 -0.1)">
       <defs>
        <path d="M 31.78125 34.625 
Q 24.75 34.625 20.71875 30.859375 
Q 16.703125 27.09375 16.703125 20.515625 
Q 16.703125 13.921875 20.71875 10.15625 
Q 24.75 6.390625 31.78125 6.390625 
Q 38.8125 6.390625 42.859375 10.171875 
Q 46.921875 13.96875 46.921875 20.515625 
Q 46.921875 27.09375 42.890625 30.859375 
Q 38.875 34.625 31.78125 34.625 
z
M 21.921875 38.8125 
Q 15.578125 40.375 12.03125 44.71875 
Q 8.5 49.078125 8.5 55.328125 
Q 8.5 64.0625 14.71875 69.140625 
Q 20.953125 74.21875 31.78125 74.21875 
Q 42.671875 74.21875 48.875 69.140625 
Q 55.078125 64.0625 55.078125 55.328125 
Q 55.078125 49.078125 51.53125 44.71875 
Q 48 40.375 41.703125 38.8125 
Q 48.828125 37.15625 52.796875 32.3125 
Q 56.78125 27.484375 56.78125 20.515625 
Q 56.78125 9.90625 50.3125 4.234375 
Q 43.84375 -1.421875 31.78125 -1.421875 
Q 19.734375 -1.421875 13.25 4.234375 
Q 6.78125 9.90625 6.78125 20.515625 
Q 6.78125 27.484375 10.78125 32.3125 
Q 14.796875 37.15625 21.921875 38.8125 
z
M 18.3125 54.390625 
Q 18.3125 48.734375 21.84375 45.5625 
Q 25.390625 42.390625 31.78125 42.390625 
Q 38.140625 42.390625 41.71875 45.5625 
Q 45.3125 48.734375 45.3125 54.390625 
Q 45.3125 60.0625 41.71875 63.234375 
Q 38.140625 66.40625 31.78125 66.40625 
Q 25.390625 66.40625 21.84375 63.234375 
Q 18.3125 60.0625 18.3125 54.390625 
z
" id="DejaVuSans-56"/>
       </defs>
       <use xlink:href="#DejaVuSans-56"/>
       <use x="63.623047" xlink:href="#DejaVuSans-48"/>
      </g>
     </g>
    </g>
    <g id="xtick_6">
     <g id="line2d_6">
      <g>
       <use style="stroke:#000000;stroke-width:0.8;" x="359.218173" xlink:href="#mc98f9d8691" y="239.758125"/>
      </g>
     </g>
     <g id="text_6">
      <!-- 100 -->
      <g transform="translate(349.674423 254.356562)scale(0.1 -0.1)">
       <defs>
        <path d="M 12.40625 8.296875 
L 28.515625 8.296875 
L 28.515625 63.921875 
L 10.984375 60.40625 
L 10.984375 69.390625 
L 28.421875 72.90625 
L 38.28125 72.90625 
L 38.28125 8.296875 
L 54.390625 8.296875 
L 54.390625 0 
L 12.40625 0 
z
" id="DejaVuSans-49"/>
       </defs>
       <use xlink:href="#DejaVuSans-49"/>
       <use x="63.623047" xlink:href="#DejaVuSans-48"/>
       <use x="127.246094" xlink:href="#DejaVuSans-48"/>
      </g>
     </g>
    </g>
    <g id="text_7">
     <!-- tau -->
     <g transform="translate(201.827344 268.034687)scale(0.1 -0.1)">
      <defs>
       <path d="M 18.3125 70.21875 
L 18.3125 54.6875 
L 36.8125 54.6875 
L 36.8125 47.703125 
L 18.3125 47.703125 
L 18.3125 18.015625 
Q 18.3125 11.328125 20.140625 9.421875 
Q 21.96875 7.515625 27.59375 7.515625 
L 36.8125 7.515625 
L 36.8125 0 
L 27.59375 0 
Q 17.1875 0 13.234375 3.875 
Q 9.28125 7.765625 9.28125 18.015625 
L 9.28125 47.703125 
L 2.6875 47.703125 
L 2.6875 54.6875 
L 9.28125 54.6875 
L 9.28125 70.21875 
z
" id="DejaVuSans-116"/>
       <path d="M 34.28125 27.484375 
Q 23.390625 27.484375 19.1875 25 
Q 14.984375 22.515625 14.984375 16.5 
Q 14.984375 11.71875 18.140625 8.90625 
Q 21.296875 6.109375 26.703125 6.109375 
Q 34.1875 6.109375 38.703125 11.40625 
Q 43.21875 16.703125 43.21875 25.484375 
L 43.21875 27.484375 
z
M 52.203125 31.203125 
L 52.203125 0 
L 43.21875 0 
L 43.21875 8.296875 
Q 40.140625 3.328125 35.546875 0.953125 
Q 30.953125 -1.421875 24.3125 -1.421875 
Q 15.921875 -1.421875 10.953125 3.296875 
Q 6 8.015625 6 15.921875 
Q 6 25.140625 12.171875 29.828125 
Q 18.359375 34.515625 30.609375 34.515625 
L 43.21875 34.515625 
L 43.21875 35.40625 
Q 43.21875 41.609375 39.140625 45 
Q 35.0625 48.390625 27.6875 48.390625 
Q 23 48.390625 18.546875 47.265625 
Q 14.109375 46.140625 10.015625 43.890625 
L 10.015625 52.203125 
Q 14.9375 54.109375 19.578125 55.046875 
Q 24.21875 56 28.609375 56 
Q 40.484375 56 46.34375 49.84375 
Q 52.203125 43.703125 52.203125 31.203125 
z
" id="DejaVuSans-97"/>
       <path d="M 8.5 21.578125 
L 8.5 54.6875 
L 17.484375 54.6875 
L 17.484375 21.921875 
Q 17.484375 14.15625 20.5 10.265625 
Q 23.53125 6.390625 29.59375 6.390625 
Q 36.859375 6.390625 41.078125 11.03125 
Q 45.3125 15.671875 45.3125 23.6875 
L 45.3125 54.6875 
L 54.296875 54.6875 
L 54.296875 0 
L 45.3125 0 
L 45.3125 8.40625 
Q 42.046875 3.421875 37.71875 1 
Q 33.40625 -1.421875 27.6875 -1.421875 
Q 18.265625 -1.421875 13.375 4.4375 
Q 8.5 10.296875 8.5 21.578125 
z
M 31.109375 56 
z
" id="DejaVuSans-117"/>
      </defs>
      <use xlink:href="#DejaVuSans-116"/>
      <use x="39.208984" xlink:href="#DejaVuSans-97"/>
      <use x="100.488281" xlink:href="#DejaVuSans-117"/>
     </g>
    </g>
   </g>
   <g id="matplotlib.axis_2">
    <g id="ytick_1">
     <g id="line2d_7">
      <defs>
       <path d="M 0 0 
L -3.5 0 
" id="m6cda86d1f5" style="stroke:#000000;stroke-width:0.8;"/>
      </defs>
      <g>
       <use style="stroke:#000000;stroke-width:0.8;" x="42.620313" xlink:href="#m6cda86d1f5" y="229.444885"/>
      </g>
     </g>
     <g id="text_8">
      <!-- −2 -->
      <g transform="translate(20.878125 233.244117)scale(0.1 -0.1)">
       <defs>
        <path d="M 10.59375 35.5 
L 73.1875 35.5 
L 73.1875 27.203125 
L 10.59375 27.203125 
z
" id="DejaVuSans-8722"/>
       </defs>
       <use xlink:href="#DejaVuSans-8722"/>
       <use x="83.789062" xlink:href="#DejaVuSans-50"/>
      </g>
     </g>
    </g>
    <g id="ytick_2">
     <g id="line2d_8">
      <g>
       <use style="stroke:#000000;stroke-width:0.8;" x="42.620313" xlink:href="#m6cda86d1f5" y="202.896881"/>
      </g>
     </g>
     <g id="text_9">
      <!-- −1 -->
      <g transform="translate(20.878125 206.696113)scale(0.1 -0.1)">
       <use xlink:href="#DejaVuSans-8722"/>
       <use x="83.789062" xlink:href="#DejaVuSans-49"/>
      </g>
     </g>
    </g>
    <g id="ytick_3">
     <g id="line2d_9">
      <g>
       <use style="stroke:#000000;stroke-width:0.8;" x="42.620313" xlink:href="#m6cda86d1f5" y="176.348877"/>
      </g>
     </g>
     <g id="text_10">
      <!-- 0 -->
      <g transform="translate(29.257813 180.148109)scale(0.1 -0.1)">
       <use xlink:href="#DejaVuSans-48"/>
      </g>
     </g>
    </g>
    <g id="ytick_4">
     <g id="line2d_10">
      <g>
       <use style="stroke:#000000;stroke-width:0.8;" x="42.620313" xlink:href="#m6cda86d1f5" y="149.800903"/>
      </g>
     </g>
     <g id="text_11">
      <!-- 1 -->
      <g transform="translate(29.257813 153.600135)scale(0.1 -0.1)">
       <use xlink:href="#DejaVuSans-49"/>
      </g>
     </g>
    </g>
    <g id="ytick_5">
     <g id="line2d_11">
      <g>
       <use style="stroke:#000000;stroke-width:0.8;" x="42.620313" xlink:href="#m6cda86d1f5" y="123.252899"/>
      </g>
     </g>
     <g id="text_12">
      <!-- 2 -->
      <g transform="translate(29.257813 127.052131)scale(0.1 -0.1)">
       <use xlink:href="#DejaVuSans-50"/>
      </g>
     </g>
    </g>
    <g id="ytick_6">
     <g id="line2d_12">
      <g>
       <use style="stroke:#000000;stroke-width:0.8;" x="42.620313" xlink:href="#m6cda86d1f5" y="96.704926"/>
      </g>
     </g>
     <g id="text_13">
      <!-- 3 -->
      <g transform="translate(29.257813 100.504158)scale(0.1 -0.1)">
       <defs>
        <path d="M 40.578125 39.3125 
Q 47.65625 37.796875 51.625 33 
Q 55.609375 28.21875 55.609375 21.1875 
Q 55.609375 10.40625 48.1875 4.484375 
Q 40.765625 -1.421875 27.09375 -1.421875 
Q 22.515625 -1.421875 17.65625 -0.515625 
Q 12.796875 0.390625 7.625 2.203125 
L 7.625 11.71875 
Q 11.71875 9.328125 16.59375 8.109375 
Q 21.484375 6.890625 26.8125 6.890625 
Q 36.078125 6.890625 40.9375 10.546875 
Q 45.796875 14.203125 45.796875 21.1875 
Q 45.796875 27.640625 41.28125 31.265625 
Q 36.765625 34.90625 28.71875 34.90625 
L 20.21875 34.90625 
L 20.21875 43.015625 
L 29.109375 43.015625 
Q 36.375 43.015625 40.234375 45.921875 
Q 44.09375 48.828125 44.09375 54.296875 
Q 44.09375 59.90625 40.109375 62.90625 
Q 36.140625 65.921875 28.71875 65.921875 
Q 24.65625 65.921875 20.015625 65.03125 
Q 15.375 64.15625 9.8125 62.3125 
L 9.8125 71.09375 
Q 15.4375 72.65625 20.34375 73.4375 
Q 25.25 74.21875 29.59375 74.21875 
Q 40.828125 74.21875 47.359375 69.109375 
Q 53.90625 64.015625 53.90625 55.328125 
Q 53.90625 49.265625 50.4375 45.09375 
Q 46.96875 40.921875 40.578125 39.3125 
z
" id="DejaVuSans-51"/>
       </defs>
       <use xlink:href="#DejaVuSans-51"/>
      </g>
     </g>
    </g>
    <g id="ytick_7">
     <g id="line2d_13">
      <g>
       <use style="stroke:#000000;stroke-width:0.8;" x="42.620313" xlink:href="#m6cda86d1f5" y="70.156952"/>
      </g>
     </g>
     <g id="text_14">
      <!-- 4 -->
      <g transform="translate(29.257813 73.956184)scale(0.1 -0.1)">
       <use xlink:href="#DejaVuSans-52"/>
      </g>
     </g>
    </g>
    <g id="ytick_8">
     <g id="line2d_14">
      <g>
       <use style="stroke:#000000;stroke-width:0.8;" x="42.620313" xlink:href="#m6cda86d1f5" y="43.608978"/>
      </g>
     </g>
     <g id="text_15">
      <!-- 5 -->
      <g transform="translate(29.257813 47.40821)scale(0.1 -0.1)">
       <defs>
        <path d="M 10.796875 72.90625 
L 49.515625 72.90625 
L 49.515625 64.59375 
L 19.828125 64.59375 
L 19.828125 46.734375 
Q 21.96875 47.46875 24.109375 47.828125 
Q 26.265625 48.1875 28.421875 48.1875 
Q 40.625 48.1875 47.75 41.5 
Q 54.890625 34.8125 54.890625 23.390625 
Q 54.890625 11.625 47.5625 5.09375 
Q 40.234375 -1.421875 26.90625 -1.421875 
Q 22.3125 -1.421875 17.546875 -0.640625 
Q 12.796875 0.140625 7.71875 1.703125 
L 7.71875 11.625 
Q 12.109375 9.234375 16.796875 8.0625 
Q 21.484375 6.890625 26.703125 6.890625 
Q 35.15625 6.890625 40.078125 11.328125 
Q 45.015625 15.765625 45.015625 23.390625 
Q 45.015625 31 40.078125 35.4375 
Q 35.15625 39.890625 26.703125 39.890625 
Q 22.75 39.890625 18.8125 39.015625 
Q 14.890625 38.140625 10.796875 36.28125 
z
" id="DejaVuSans-53"/>
       </defs>
       <use xlink:href="#DejaVuSans-53"/>
      </g>
     </g>
    </g>
    <g id="text_16">
     <!-- u.u -->
     <g transform="translate(14.798438 138.964687)rotate(-90)scale(0.1 -0.1)">
      <defs>
       <path d="M 10.6875 12.40625 
L 21 12.40625 
L 21 0 
L 10.6875 0 
z
" id="DejaVuSans-46"/>
      </defs>
      <use xlink:href="#DejaVuSans-117"/>
      <use x="63.378906" xlink:href="#DejaVuSans-46"/>
      <use x="95.166016" xlink:href="#DejaVuSans-117"/>
     </g>
    </g>
    <g id="text_17">
     <!-- 1e−10−1 -->
     <g transform="translate(42.620313 19.318125)scale(0.1 -0.1)">
      <defs>
       <path d="M 56.203125 29.59375 
L 56.203125 25.203125 
L 14.890625 25.203125 
Q 15.484375 15.921875 20.484375 11.0625 
Q 25.484375 6.203125 34.421875 6.203125 
Q 39.59375 6.203125 44.453125 7.46875 
Q 49.3125 8.734375 54.109375 11.28125 
L 54.109375 2.78125 
Q 49.265625 0.734375 44.1875 -0.34375 
Q 39.109375 -1.421875 33.890625 -1.421875 
Q 20.796875 -1.421875 13.15625 6.1875 
Q 5.515625 13.8125 5.515625 26.8125 
Q 5.515625 40.234375 12.765625 48.109375 
Q 20.015625 56 32.328125 56 
Q 43.359375 56 49.78125 48.890625 
Q 56.203125 41.796875 56.203125 29.59375 
z
M 47.21875 32.234375 
Q 47.125 39.59375 43.09375 43.984375 
Q 39.0625 48.390625 32.421875 48.390625 
Q 24.90625 48.390625 20.390625 44.140625 
Q 15.875 39.890625 15.1875 32.171875 
z
" id="DejaVuSans-101"/>
      </defs>
      <use xlink:href="#DejaVuSans-49"/>
      <use x="63.623047" xlink:href="#DejaVuSans-101"/>
      <use x="125.146484" xlink:href="#DejaVuSans-8722"/>
      <use x="208.935547" xlink:href="#DejaVuSans-49"/>
      <use x="272.558594" xlink:href="#DejaVuSans-48"/>
      <use x="336.181641" xlink:href="#DejaVuSans-8722"/>
      <use x="419.970703" xlink:href="#DejaVuSans-49"/>
     </g>
    </g>
   </g>
   <g id="line2d_15">
    <path clip-path="url(#p75f920d580)" d="M 57.838494 176.348907 
L 60.822452 176.348907 
L 60.822452 176.348907 
L 61.575976 176.498047 
L 62.329501 184.044861 
L 63.083025 182.21402 
L 63.83655 176.559998 
L 64.590074 176.282043 
L 66.097123 176.040924 
L 66.850648 175.066956 
L 68.357697 178.871613 
L 69.111222 180.003479 
L 69.864746 180.774384 
L 72.12532 182.685791 
L 72.878844 183.416809 
L 73.632369 186.19693 
L 74.385893 187.956543 
L 75.139418 190.023804 
L 75.892943 193.007111 
L 77.399992 196.771912 
L 79.660565 203.759186 
L 80.41409 205.728882 
L 81.167614 208.435913 
L 82.674663 229.874481 
L 84.181713 221.654724 
L 84.935237 211.36731 
L 85.688762 207.536377 
L 86.442286 200.865997 
L 87.195811 200.259766 
L 87.949335 199.09024 
L 88.70286 199.555695 
L 89.456384 199.836761 
L 91.716958 198.62619 
L 92.470483 198.457855 
L 93.977532 197.513733 
L 94.731056 194.837952 
L 95.484581 193.685394 
L 96.99163 192.035767 
L 97.745155 190.466339 
L 98.498679 188.240448 
L 99.252204 187.62738 
L 100.005728 185.871185 
L 100.759253 185.559937 
L 101.512777 183.500061 
L 102.266302 183.041656 
L 103.019826 180.672424 
L 103.773351 180.068787 
L 104.526875 178.612518 
L 105.2804 177.816498 
L 106.787449 174.756836 
L 107.540974 173.828735 
L 108.294498 172.123474 
L 109.048023 171.512299 
L 109.801547 169.392059 
L 110.555072 168.999695 
L 111.308596 166.781342 
L 112.062121 166.366364 
L 112.815646 164.502655 
L 113.56917 163.853729 
L 114.322695 162.148468 
L 115.829744 159.824493 
L 116.583268 158.330505 
L 117.336793 157.425079 
L 118.090317 155.553802 
L 118.843842 155.010529 
L 119.597366 152.807281 
L 120.350891 152.445099 
L 121.104416 150.392761 
L 121.85794 149.970215 
L 122.611465 148.038605 
L 123.364989 147.374603 
L 124.872038 144.5979 
L 125.625563 143.390656 
L 126.379087 141.579742 
L 127.132612 140.915741 
L 127.886137 138.80304 
L 128.639661 138.320129 
L 129.393186 136.147064 
L 130.14671 135.905609 
L 130.900235 133.853271 
L 131.653759 133.249634 
L 132.407284 131.559479 
L 133.160808 130.593658 
L 135.421382 126.60968 
L 135.421382 126.60968 
L 136.17112 176.107452 
L 136.920858 181.419403 
L 137.670596 197.234558 
L 139.170072 172.968567 
L 139.91981 172.364929 
L 140.669548 172.123474 
L 141.419286 171.640594 
L 142.169024 170.795502 
L 142.918762 170.976593 
L 144.418238 178.280518 
L 145.167976 180.212158 
L 148.166928 184.467743 
L 148.916666 185.765564 
L 149.666404 189.387329 
L 150.416142 195.997101 
L 151.915618 192.073486 
L 152.665356 186.369171 
L 153.415094 184.81485 
L 154.164832 182.023041 
L 154.91457 181.69104 
L 155.664308 181.525055 
L 156.414046 181.675964 
L 157.163784 181.615601 
L 157.913522 181.328857 
L 159.412998 181.147766 
L 160.162736 180.944061 
L 160.912474 180.498871 
L 161.662212 178.567261 
L 162.41195 178.129608 
L 163.161688 176.990265 
L 163.911426 176.533783 
L 164.661164 174.907745 
L 167.660116 171.338776 
L 168.409854 170.240906 
L 169.159592 169.420349 
L 169.90933 167.899963 
L 170.659068 167.466095 
L 171.408806 166.049438 
L 172.158544 165.674072 
L 172.908282 163.931091 
L 173.65802 163.63681 
L 174.407758 162.058868 
L 175.157496 161.725006 
L 175.907234 160.222534 
L 176.656972 159.73584 
L 177.40671 158.344666 
L 178.156448 157.675018 
L 178.906186 156.536591 
L 180.405662 154.699768 
L 181.1554 153.590607 
L 181.905138 152.835571 
L 182.654876 151.534943 
L 183.404614 150.971863 
L 184.154352 149.447937 
L 184.90409 149.065247 
L 185.653828 147.422943 
L 186.403566 147.1315 
L 187.153304 145.505951 
L 187.903042 145.181732 
L 188.65278 143.626434 
L 189.402518 143.187256 
L 190.152256 141.787354 
L 190.901994 141.18219 
L 191.651732 139.957611 
L 192.40147 139.145874 
L 193.900946 137.091003 
L 194.650684 136.275269 
L 195.400422 135.022797 
L 196.15016 134.406433 
L 196.899898 132.935883 
L 197.649636 132.511078 
L 198.399374 130.893738 
L 199.149112 130.589996 
L 199.89885 128.945374 
L 200.648588 128.638428 
L 201.398326 127.060913 
L 202.148064 126.660095 
L 202.897802 125.21344 
L 203.64754 124.528687 
L 205.147016 119.809021 
L 205.896754 122.713593 
L 206.646492 128.891541 
L 207.39623 130.223328 
L 208.145968 132.717346 
L 208.895706 134.162445 
L 209.645444 139.43869 
L 210.395181 148.360168 
L 211.144919 148.619904 
L 211.894657 150.651367 
L 213.394133 150.102081 
L 214.143871 150.357666 
L 214.893609 152.166138 
L 215.643347 156.347351 
L 216.393085 156.282288 
L 217.142823 154.85498 
L 217.892561 154.138794 
L 218.642299 156.800354 
L 219.392037 161.003632 
L 220.141775 161.016602 
L 220.891513 160.845001 
L 221.641251 160.500244 
L 223.140727 161.142487 
L 223.890465 162.050262 
L 224.640203 161.941559 
L 225.389941 161.623077 
L 226.889417 161.951904 
L 227.639155 161.460785 
L 228.388893 160.833099 
L 231.387845 159.76474 
L 232.137583 159.256714 
L 232.887321 159.09848 
L 233.637059 158.6651 
L 234.386797 157.894073 
L 235.136535 154.040497 
L 236.636011 150.854462 
L 238.135487 147.670776 
L 238.885225 143.895233 
L 239.634963 143.445343 
L 240.384701 140.458313 
L 241.134439 139.898529 
L 241.884177 137.660858 
L 242.633915 136.150848 
L 243.383653 134.179596 
L 244.133391 131.061462 
L 244.883129 130.490845 
L 245.632867 127.61795 
L 246.382605 127.166168 
L 247.132343 124.066895 
L 247.882081 122.812469 
L 249.381557 118.664398 
L 250.131295 117.592957 
L 250.881033 114.459717 
L 251.630771 113.990021 
L 252.380509 110.711548 
L 253.130247 109.949463 
L 253.879985 107.602844 
L 255.379461 104.365875 
L 256.129199 101.475983 
L 256.878937 100.81955 
L 257.628675 97.575043 
L 258.378413 97.084595 
L 259.128151 94.277679 
L 259.877889 93.025146 
L 260.627627 91.04071 
L 261.377365 88.686554 
L 262.127103 87.6604 
L 262.876841 84.461151 
L 263.626579 84.038605 
L 264.376317 80.899719 
L 265.126055 80.039551 
L 265.875793 77.730652 
L 266.625531 75.919769 
L 267.375269 74.516327 
L 268.125007 71.618896 
L 268.874745 71.015259 
L 269.624483 67.725464 
L 270.374221 67.272736 
L 271.123959 64.465851 
L 271.873697 63.107697 
L 272.623435 61.296783 
L 273.373173 58.701172 
L 274.122911 57.675018 
L 274.872649 54.415405 
L 275.622387 54.053223 
L 276.372125 50.974701 
L 277.121863 50.189972 
L 277.871601 47.896179 
L 278.621339 45.964569 
L 279.371077 44.757294 
L 280.120815 41.618408 
L 280.870553 41.014771 
L 281.620291 37.875885 
L 282.370029 37.513733 
L 283.119767 34.616302 
L 283.869505 33.891937 
L 284.619243 32.201752 
L 284.619243 32.201752 
L 285.372768 80.250824 
L 286.126292 86.77002 
L 286.879817 104.27533 
L 288.386866 84.596954 
L 289.14039 84.114044 
L 289.893915 83.993317 
L 290.647439 83.751862 
L 291.400964 82.544617 
L 292.154488 83.389709 
L 293.661538 89.727814 
L 294.415062 92.021637 
L 296.675636 94.919067 
L 298.182685 97.424133 
L 299.689734 107.021851 
L 301.196783 102.554993 
L 301.950308 97.605225 
L 303.457357 93.907959 
L 304.210881 93.409973 
L 305.71793 93.591064 
L 307.978504 93.108154 
L 309.485553 92.874237 
L 310.239078 92.021637 
L 310.992602 90.467285 
L 311.746127 90.105103 
L 312.499651 89.041199 
L 313.253176 88.584686 
L 314.0067 86.785126 
L 314.760225 86.513489 
L 315.51375 85.17041 
L 316.267274 84.944061 
L 317.020799 83.585876 
L 317.774323 83.21991 
L 318.527848 81.678772 
L 319.281372 81.261902 
L 320.034897 80.107452 
L 320.788421 79.637756 
L 321.541946 78.377655 
L 322.29547 77.713684 
L 323.048995 76.681854 
L 323.80252 75.947113 
L 326.816618 72.25177 
L 327.570142 71.60379 
L 328.323667 70.459259 
L 329.077191 69.904205 
L 329.830716 68.579041 
L 330.584241 68.161224 
L 331.337765 66.75824 
L 332.09129 66.438507 
L 332.844814 64.966675 
L 333.598339 64.684906 
L 334.351863 63.207184 
L 335.105388 62.919769 
L 335.858912 61.491791 
L 336.612437 61.1539 
L 337.365962 59.781097 
L 338.119486 59.361267 
L 338.873011 58.09082 
L 339.626535 57.568787 
L 340.38006 56.404083 
L 341.133584 55.75943 
L 341.887109 54.71698 
L 343.394158 53.028931 
L 345.654732 50.281891 
L 346.408256 49.629395 
L 347.161781 48.442871 
L 347.915305 47.915833 
L 348.66883 46.596161 
L 349.422354 46.189636 
L 350.175879 44.764252 
L 350.929403 44.451813 
L 351.682928 42.979706 
L 352.436453 42.701233 
L 353.189977 41.231171 
L 353.943502 40.937836 
L 354.697026 39.510162 
L 355.450551 39.162567 
L 356.204075 37.807068 
L 356.9576 37.941498 
L 357.711124 39.866547 
L 358.464649 38.602722 
L 359.218173 36.856445 
L 359.218173 36.856445 
L 362.202131 36.856445 
L 362.202131 36.856445 
" style="fill:none;stroke:#1f77b4;stroke-linecap:square;stroke-width:1.5;"/>
   </g>
   <g id="patch_3">
    <path d="M 42.620313 239.758118 
L 42.620313 22.318115 
" style="fill:none;stroke:#000000;stroke-linecap:square;stroke-linejoin:miter;stroke-width:0.8;"/>
   </g>
   <g id="patch_4">
    <path d="M 377.420313 239.758118 
L 377.420313 22.318115 
" style="fill:none;stroke:#000000;stroke-linecap:square;stroke-linejoin:miter;stroke-width:0.8;"/>
   </g>
   <g id="patch_5">
    <path d="M 42.620313 239.758125 
L 377.420313 239.758125 
" style="fill:none;stroke:#000000;stroke-linecap:square;stroke-linejoin:miter;stroke-width:0.8;"/>
   </g>
   <g id="patch_6">
    <path d="M 42.620313 22.318125 
L 377.420313 22.318125 
" style="fill:none;stroke:#000000;stroke-linecap:square;stroke-linejoin:miter;stroke-width:0.8;"/>
   </g>
   <g id="text_18">
    <!-- u.u as a function of tau -->
    <g transform="translate(140.370625 16.318125)scale(0.12 -0.12)">
     <defs>
      <path id="DejaVuSans-32"/>
      <path d="M 44.28125 53.078125 
L 44.28125 44.578125 
Q 40.484375 46.53125 36.375 47.5 
Q 32.28125 48.484375 27.875 48.484375 
Q 21.1875 48.484375 17.84375 46.4375 
Q 14.5 44.390625 14.5 40.28125 
Q 14.5 37.15625 16.890625 35.375 
Q 19.28125 33.59375 26.515625 31.984375 
L 29.59375 31.296875 
Q 39.15625 29.25 43.1875 25.515625 
Q 47.21875 21.78125 47.21875 15.09375 
Q 47.21875 7.46875 41.1875 3.015625 
Q 35.15625 -1.421875 24.609375 -1.421875 
Q 20.21875 -1.421875 15.453125 -0.5625 
Q 10.6875 0.296875 5.421875 2 
L 5.421875 11.28125 
Q 10.40625 8.6875 15.234375 7.390625 
Q 20.0625 6.109375 24.8125 6.109375 
Q 31.15625 6.109375 34.5625 8.28125 
Q 37.984375 10.453125 37.984375 14.40625 
Q 37.984375 18.0625 35.515625 20.015625 
Q 33.0625 21.96875 24.703125 23.78125 
L 21.578125 24.515625 
Q 13.234375 26.265625 9.515625 29.90625 
Q 5.8125 33.546875 5.8125 39.890625 
Q 5.8125 47.609375 11.28125 51.796875 
Q 16.75 56 26.8125 56 
Q 31.78125 56 36.171875 55.265625 
Q 40.578125 54.546875 44.28125 53.078125 
z
" id="DejaVuSans-115"/>
      <path d="M 37.109375 75.984375 
L 37.109375 68.5 
L 28.515625 68.5 
Q 23.6875 68.5 21.796875 66.546875 
Q 19.921875 64.59375 19.921875 59.515625 
L 19.921875 54.6875 
L 34.71875 54.6875 
L 34.71875 47.703125 
L 19.921875 47.703125 
L 19.921875 0 
L 10.890625 0 
L 10.890625 47.703125 
L 2.296875 47.703125 
L 2.296875 54.6875 
L 10.890625 54.6875 
L 10.890625 58.5 
Q 10.890625 67.625 15.140625 71.796875 
Q 19.390625 75.984375 28.609375 75.984375 
z
" id="DejaVuSans-102"/>
      <path d="M 54.890625 33.015625 
L 54.890625 0 
L 45.90625 0 
L 45.90625 32.71875 
Q 45.90625 40.484375 42.875 44.328125 
Q 39.84375 48.1875 33.796875 48.1875 
Q 26.515625 48.1875 22.3125 43.546875 
Q 18.109375 38.921875 18.109375 30.90625 
L 18.109375 0 
L 9.078125 0 
L 9.078125 54.6875 
L 18.109375 54.6875 
L 18.109375 46.1875 
Q 21.34375 51.125 25.703125 53.5625 
Q 30.078125 56 35.796875 56 
Q 45.21875 56 50.046875 50.171875 
Q 54.890625 44.34375 54.890625 33.015625 
z
" id="DejaVuSans-110"/>
      <path d="M 48.78125 52.59375 
L 48.78125 44.1875 
Q 44.96875 46.296875 41.140625 47.34375 
Q 37.3125 48.390625 33.40625 48.390625 
Q 24.65625 48.390625 19.8125 42.84375 
Q 14.984375 37.3125 14.984375 27.296875 
Q 14.984375 17.28125 19.8125 11.734375 
Q 24.65625 6.203125 33.40625 6.203125 
Q 37.3125 6.203125 41.140625 7.25 
Q 44.96875 8.296875 48.78125 10.40625 
L 48.78125 2.09375 
Q 45.015625 0.34375 40.984375 -0.53125 
Q 36.96875 -1.421875 32.421875 -1.421875 
Q 20.0625 -1.421875 12.78125 6.34375 
Q 5.515625 14.109375 5.515625 27.296875 
Q 5.515625 40.671875 12.859375 48.328125 
Q 20.21875 56 33.015625 56 
Q 37.15625 56 41.109375 55.140625 
Q 45.0625 54.296875 48.78125 52.59375 
z
" id="DejaVuSans-99"/>
      <path d="M 9.421875 54.6875 
L 18.40625 54.6875 
L 18.40625 0 
L 9.421875 0 
z
M 9.421875 75.984375 
L 18.40625 75.984375 
L 18.40625 64.59375 
L 9.421875 64.59375 
z
" id="DejaVuSans-105"/>
      <path d="M 30.609375 48.390625 
Q 23.390625 48.390625 19.1875 42.75 
Q 14.984375 37.109375 14.984375 27.296875 
Q 14.984375 17.484375 19.15625 11.84375 
Q 23.34375 6.203125 30.609375 6.203125 
Q 37.796875 6.203125 41.984375 11.859375 
Q 46.1875 17.53125 46.1875 27.296875 
Q 46.1875 37.015625 41.984375 42.703125 
Q 37.796875 48.390625 30.609375 48.390625 
z
M 30.609375 56 
Q 42.328125 56 49.015625 48.375 
Q 55.71875 40.765625 55.71875 27.296875 
Q 55.71875 13.875 49.015625 6.21875 
Q 42.328125 -1.421875 30.609375 -1.421875 
Q 18.84375 -1.421875 12.171875 6.21875 
Q 5.515625 13.875 5.515625 27.296875 
Q 5.515625 40.765625 12.171875 48.375 
Q 18.84375 56 30.609375 56 
z
" id="DejaVuSans-111"/>
     </defs>
     <use xlink:href="#DejaVuSans-117"/>
     <use x="63.378906" xlink:href="#DejaVuSans-46"/>
     <use x="95.166016" xlink:href="#DejaVuSans-117"/>
     <use x="158.544922" xlink:href="#DejaVuSans-32"/>
     <use x="190.332031" xlink:href="#DejaVuSans-97"/>
     <use x="251.611328" xlink:href="#DejaVuSans-115"/>
     <use x="303.710938" xlink:href="#DejaVuSans-32"/>
     <use x="335.498047" xlink:href="#DejaVuSans-97"/>
     <use x="396.777344" xlink:href="#DejaVuSans-32"/>
     <use x="428.564453" xlink:href="#DejaVuSans-102"/>
     <use x="463.769531" xlink:href="#DejaVuSans-117"/>
     <use x="527.148438" xlink:href="#DejaVuSans-110"/>
     <use x="590.527344" xlink:href="#DejaVuSans-99"/>
     <use x="645.507812" xlink:href="#DejaVuSans-116"/>
     <use x="684.716797" xlink:href="#DejaVuSans-105"/>
     <use x="712.5" xlink:href="#DejaVuSans-111"/>
     <use x="773.681641" xlink:href="#DejaVuSans-110"/>
     <use x="837.060547" xlink:href="#DejaVuSans-32"/>
     <use x="868.847656" xlink:href="#DejaVuSans-111"/>
     <use x="930.029297" xlink:href="#DejaVuSans-102"/>
     <use x="965.234375" xlink:href="#DejaVuSans-32"/>
     <use x="997.021484" xlink:href="#DejaVuSans-116"/>
     <use x="1036.230469" xlink:href="#DejaVuSans-97"/>
     <use x="1097.509766" xlink:href="#DejaVuSans-117"/>
    </g>
   </g>
  </g>
 </g>
 <defs>
  <clipPath id="p75f920d580">
   <rect height="217.44" width="334.8" x="42.620313" y="22.318125"/>
  </clipPath>
 </defs>
</svg>
